<svg version="1.1" id="Layer_1" xmlns="http://www.w3.org/2000/svg" xmlns:xlink="http://www.w3.org/1999/xlink" x="0px" y="0px"
	 width="100%" viewBox="0 0 432 362" enable-background="new 0 0 432 362" xml:space="preserve">
<path fill="#000000" opacity="1.000000" stroke="none" 
	d="
M228.000000,363.000000 
	C152.023773,363.000000 76.547539,363.000000 1.035655,363.000000 
	C1.035655,242.395096 1.035655,121.790192 1.035655,1.092639 
	C144.892853,1.092639 288.785767,1.092639 432.839355,1.092639 
	C432.839355,121.666496 432.839355,242.333221 432.839355,363.000000 
	C364.790283,363.000000 296.645142,363.000000 228.000000,363.000000 
M213.654602,102.905579 
	C212.742416,105.457275 211.924438,108.047447 210.901047,110.553741 
	C207.289474,119.398422 203.490723,128.168503 199.998749,137.059464 
	C198.094330,141.908310 196.664658,146.943619 195.020874,151.894836 
	C192.411285,145.142990 190.090530,138.360413 189.164963,131.392487 
	C188.252213,124.521225 187.136688,118.077972 180.938416,114.082458 
	C178.962601,112.808807 175.991150,111.895905 173.886810,112.432312 
	C172.541580,112.775208 171.229614,116.044617 171.136093,118.059242 
	C170.392456,134.078857 164.691879,148.867981 159.857010,163.830154 
	C157.833328,170.092743 155.634811,176.118011 155.958069,182.844482 
	C156.222366,188.344269 156.011871,193.866882 156.011871,199.420303 
	C155.174301,198.420532 154.026993,197.106033 152.939804,195.743561 
	C148.905380,190.687607 145.073257,185.450806 140.743698,180.663055 
	C139.625565,179.426605 136.975021,179.298172 135.016113,179.257782 
	C134.373199,179.244522 133.420776,181.031845 133.072861,182.140991 
	C131.285614,187.838806 130.130569,193.783401 127.857346,199.269989 
	C123.466881,209.866714 122.807922,220.877289 126.912033,231.090576 
	C132.634415,245.330994 132.754044,260.428925 136.128571,274.966400 
	C137.749695,281.950134 139.474319,289.383545 143.223206,295.301239 
	C151.080307,307.703735 163.071198,315.792175 177.034698,319.880890 
	C190.080093,323.700775 203.454712,326.859985 216.905075,328.673035 
	C226.128235,329.916260 235.749619,328.642181 245.155350,327.968262 
	C254.131409,327.325073 263.098846,326.264465 271.996277,324.904358 
	C281.013000,323.526001 290.062469,321.780548 297.151459,315.303253 
	C303.239899,309.740143 309.313354,304.144714 315.114410,298.287201 
	C321.945221,291.389923 327.689392,283.752106 329.572754,273.849487 
	C330.902405,266.858704 332.388428,259.897614 334.254883,252.186630 
	C334.108673,245.453171 333.962463,238.719727 333.653992,231.205215 
	C332.091919,222.753372 330.601410,214.287415 328.938690,205.855423 
	C328.060364,201.401306 327.356445,196.823181 325.735443,192.624725 
	C322.819733,185.072739 319.238770,177.779236 316.005646,170.347336 
	C314.644226,167.217880 312.479401,165.515991 309.568848,167.945099 
	C305.973175,170.945999 302.894470,174.566254 299.522888,177.989456 
	C299.129639,176.520386 298.546234,174.369461 297.978302,172.214462 
	C295.296356,162.037842 293.958191,151.234726 289.577423,141.851852 
	C284.827026,131.677261 277.320251,122.772720 270.874573,113.411354 
	C264.603821,104.303993 258.993134,94.544304 251.551849,86.495522 
	C243.864059,78.180084 234.417053,71.460777 225.533325,64.299141 
	C222.741653,62.048634 219.552261,62.123089 217.963074,66.131294 
	C216.843674,68.954620 216.075165,71.917076 214.957809,75.698189 
	C214.680984,84.574554 214.404144,93.450912 213.654602,102.905579 
z"/>
<path fill="#DA7A4E" opacity="1.000000" stroke="none" 
	d="
M215.149979,74.817413 
	C216.075165,71.917076 216.843674,68.954620 217.963074,66.131294 
	C219.552261,62.123089 222.741653,62.048634 225.533325,64.299141 
	C234.417053,71.460777 243.864059,78.180084 251.551849,86.495522 
	C258.993134,94.544304 264.603821,104.303993 270.874573,113.411354 
	C277.320251,122.772720 284.827026,131.677261 289.577423,141.851852 
	C293.958191,151.234726 295.296356,162.037842 297.978302,172.214462 
	C298.546234,174.369461 299.129639,176.520386 299.522888,177.989456 
	C302.894470,174.566254 305.973175,170.945999 309.568848,167.945099 
	C312.479401,165.515991 314.644226,167.217880 316.005646,170.347336 
	C319.238770,177.779236 322.819733,185.072739 325.735443,192.624725 
	C327.356445,196.823181 328.060364,201.401306 328.938690,205.855423 
	C330.601410,214.287415 332.091919,222.753372 333.450073,231.876038 
	C333.432312,239.338989 333.618469,246.131119 333.804657,252.923264 
	C332.388428,259.897614 330.902405,266.858704 329.572754,273.849487 
	C327.689392,283.752106 321.945221,291.389923 315.114410,298.287201 
	C309.313354,304.144714 303.239899,309.740143 297.151459,315.303253 
	C290.062469,321.780548 281.013000,323.526001 271.996277,324.904358 
	C263.098846,326.264465 254.131409,327.325073 245.155350,327.968262 
	C235.749619,328.642181 226.128235,329.916260 216.905075,328.673035 
	C203.454712,326.859985 190.080093,323.700775 177.034698,319.880890 
	C163.071198,315.792175 151.080307,307.703735 143.223206,295.301239 
	C139.474319,289.383545 137.749695,281.950134 136.128571,274.966400 
	C132.754044,260.428925 132.634415,245.330994 126.912033,231.090576 
	C122.807922,220.877289 123.466881,209.866714 127.857346,199.269989 
	C130.130569,193.783401 131.285614,187.838806 133.072861,182.140991 
	C133.420776,181.031845 134.373199,179.244522 135.016113,179.257782 
	C136.975021,179.298172 139.625565,179.426605 140.743698,180.663055 
	C145.073257,185.450806 148.905380,190.687607 152.939804,195.743561 
	C154.026993,197.106033 155.174301,198.420532 156.011871,199.420303 
	C156.011871,193.866882 156.222366,188.344269 155.958069,182.844482 
	C155.634811,176.118011 157.833328,170.092743 159.857010,163.830154 
	C164.691879,148.867981 170.392456,134.078857 171.136093,118.059242 
	C171.229614,116.044617 172.541580,112.775208 173.886810,112.432312 
	C175.991150,111.895905 178.962601,112.808807 180.938416,114.082458 
	C187.136688,118.077972 188.252213,124.521225 189.164963,131.392487 
	C190.090530,138.360413 192.411285,145.142990 195.020874,151.894836 
	C196.664658,146.943619 198.094330,141.908310 199.998749,137.059464 
	C203.490723,128.168503 207.289474,119.398422 210.901047,110.553741 
	C211.924438,108.047447 212.742416,105.457275 214.213303,102.347664 
	C214.897995,92.798973 215.023987,83.808189 215.149979,74.817413 
M170.476242,155.986328 
	C169.905273,158.408646 169.835159,161.105606 168.681961,163.208633 
	C161.273605,176.718628 162.384964,190.717010 165.746735,204.942139 
	C166.661819,208.814255 167.492218,212.728958 167.952347,216.671844 
	C168.085083,217.809235 167.059219,219.504501 166.051453,220.193375 
	C165.449219,220.605057 163.421692,219.911636 162.767059,219.113998 
	C156.670212,211.685501 150.732925,204.126038 144.748047,196.605637 
	C143.263809,194.740601 141.774628,192.879486 139.704330,190.285675 
	C134.565735,202.485703 129.215271,213.472458 133.538025,226.160019 
	C137.943665,239.090866 141.197083,252.188568 142.447418,265.910614 
	C143.155701,273.683594 144.731094,282.106293 148.544922,288.720459 
	C157.319397,303.937653 171.543472,312.238556 188.893097,315.142090 
	C192.321365,315.715820 195.642303,316.924164 199.068451,317.518768 
	C208.192947,319.102173 217.340775,321.648224 226.492432,321.705231 
	C238.377487,321.779236 250.296936,320.011597 262.161865,318.682220 
	C276.135437,317.116608 288.523254,313.424774 300.003998,303.398438 
	C318.185822,287.519989 326.279327,268.287903 326.752167,245.190109 
	C326.920044,236.989838 325.356873,228.673782 323.882080,220.537796 
	C321.199860,205.740631 319.570007,190.535568 309.817169,177.829544 
	C309.268433,178.561554 308.278076,179.476593 307.786896,180.608276 
	C305.673920,185.476425 303.880707,190.491364 301.586243,195.268021 
	C300.862885,196.773956 298.939697,197.703552 297.565643,198.896912 
	C296.682800,197.529922 295.424408,196.267258 295.008545,194.770508 
	C294.441315,192.729050 294.728363,190.463501 294.278503,188.373825 
	C292.496613,180.096741 290.473297,171.871262 288.723236,163.587814 
	C286.757294,154.282684 284.758881,145.038513 279.112579,137.057922 
	C272.008942,127.017525 265.265869,116.710831 257.885010,106.881126 
	C251.525040,98.411057 244.860626,90.097626 237.597229,82.407845 
	C233.891647,78.484756 228.574615,76.083771 222.889679,72.256775 
	C222.889679,76.658028 222.744431,79.619263 222.915115,82.562187 
	C223.613144,94.597351 221.427887,105.949417 216.291794,116.954849 
	C211.939316,126.281197 208.104507,135.904251 204.825653,145.659866 
	C201.982513,154.119019 199.518982,162.825195 201.732117,172.052246 
	C202.225601,174.109711 202.179428,177.923386 201.157410,178.422775 
	C197.618347,180.151978 196.498337,176.693970 195.165100,174.242447 
	C194.926666,173.804047 194.668442,173.361221 194.525421,172.888351 
	C189.971115,157.829178 182.266434,143.716141 181.004990,127.653900 
	C180.869873,125.933372 179.817139,124.284912 179.190079,122.603020 
	C177.597473,126.989326 177.332901,131.158142 176.359039,135.154114 
	C174.716934,141.892227 172.625107,148.520721 170.476242,155.986328 
z"/>
<path fill="#EAD0C6" opacity="1.000000" stroke="none" 
	d="
M215.053894,75.257797 
	C215.023987,83.808189 214.897995,92.798973 214.449646,102.058517 
	C214.404144,93.450912 214.680984,84.574554 215.053894,75.257797 
z"/>
<path fill="#F3E4DE" opacity="1.000000" stroke="none" 
	d="
M334.029785,252.554947 
	C333.618469,246.131119 333.432312,239.338989 333.531189,232.266556 
	C333.962463,238.719727 334.108673,245.453171 334.029785,252.554947 
z"/>
<path fill="#FBBD77" opacity="1.000000" stroke="none" 
	d="
M170.599319,155.590820 
	C172.625107,148.520721 174.716934,141.892227 176.359039,135.154114 
	C177.332901,131.158142 177.597473,126.989326 179.190079,122.603020 
	C179.817139,124.284912 180.869873,125.933372 181.004990,127.653900 
	C182.266434,143.716141 189.971115,157.829178 194.525421,172.888351 
	C194.668442,173.361221 194.926666,173.804047 195.165100,174.242447 
	C196.498337,176.693970 197.618347,180.151978 201.157410,178.422775 
	C202.179428,177.923386 202.225601,174.109711 201.732117,172.052246 
	C199.518982,162.825195 201.982513,154.119019 204.825653,145.659866 
	C208.104507,135.904251 211.939316,126.281197 216.291794,116.954849 
	C221.427887,105.949417 223.613144,94.597351 222.915115,82.562187 
	C222.744431,79.619263 222.889679,76.658028 222.889679,72.256775 
	C228.574615,76.083771 233.891647,78.484756 237.597229,82.407845 
	C244.860626,90.097626 251.525040,98.411057 257.885010,106.881126 
	C265.265869,116.710831 272.008942,127.017525 279.112579,137.057922 
	C284.758881,145.038513 286.757294,154.282684 288.723236,163.587814 
	C290.473297,171.871262 292.496613,180.096741 294.278503,188.373825 
	C294.728363,190.463501 294.441315,192.729050 295.008545,194.770508 
	C295.424408,196.267258 296.682800,197.529922 297.565643,198.896912 
	C298.939697,197.703552 300.862885,196.773956 301.586243,195.268021 
	C303.880707,190.491364 305.673920,185.476425 307.786896,180.608276 
	C308.278076,179.476593 309.268433,178.561554 309.817169,177.829544 
	C319.570007,190.535568 321.199860,205.740631 323.882080,220.537796 
	C325.356873,228.673782 326.920044,236.989838 326.752167,245.190109 
	C326.279327,268.287903 318.185822,287.519989 300.003998,303.398438 
	C288.523254,313.424774 276.135437,317.116608 262.161865,318.682220 
	C250.296936,320.011597 238.377487,321.779236 226.492432,321.705231 
	C217.340775,321.648224 208.192947,319.102173 199.068451,317.518768 
	C195.642303,316.924164 192.321365,315.715820 188.893097,315.142090 
	C171.543472,312.238556 157.319397,303.937653 148.544922,288.720459 
	C144.731094,282.106293 143.155701,273.683594 142.447418,265.910614 
	C141.197083,252.188568 137.943665,239.090866 133.538025,226.160019 
	C129.215271,213.472458 134.565735,202.485703 139.704330,190.285675 
	C141.774628,192.879486 143.263809,194.740601 144.748047,196.605637 
	C150.732925,204.126038 156.670212,211.685501 162.767059,219.113998 
	C163.421692,219.911636 165.449219,220.605057 166.051453,220.193375 
	C167.059219,219.504501 168.085083,217.809235 167.952347,216.671844 
	C167.492218,212.728958 166.661819,208.814255 165.746735,204.942139 
	C162.384964,190.717010 161.273605,176.718628 168.681961,163.208633 
	C169.835159,161.105606 169.905273,158.408646 170.599319,155.590820 
M300.141113,293.673523 
	C300.954376,292.422974 301.601593,291.016418 302.606903,289.946228 
	C311.505859,280.472931 315.870575,269.082458 314.822998,256.318359 
	C313.768646,243.471741 311.689575,230.670227 309.332428,217.984055 
	C307.894318,210.244217 303.027954,208.743240 296.439087,213.062607 
	C294.774414,214.153885 293.286316,215.516602 291.611755,216.590256 
	C289.256683,218.100220 287.408783,218.704529 285.763733,215.182312 
	C282.713806,208.652115 280.628967,207.760101 273.579010,208.900421 
	C268.633423,209.700348 265.092926,208.164062 263.192963,203.398819 
	C262.396637,201.401596 261.624359,199.393417 260.899811,197.369232 
	C259.050873,192.203949 257.908447,186.648087 255.259018,181.937027 
	C250.441833,173.371429 242.187393,167.553497 233.096771,179.497345 
	C231.295624,181.863785 229.750793,184.482803 228.450119,187.161301 
	C225.230225,193.792068 219.860687,197.585190 212.952789,199.492020 
	C207.936203,200.876785 200.102814,199.280884 198.475479,195.348831 
	C195.104889,187.204666 187.209610,181.734406 185.682922,172.484344 
	C185.347046,170.449417 182.373932,167.629944 180.373093,167.413788 
	C178.123871,167.170822 174.314285,168.894882 173.473465,170.782990 
	C171.898773,174.319107 170.993759,178.736374 171.557999,182.526932 
	C172.951843,191.890900 175.092590,201.059189 173.182800,210.667908 
	C172.600952,213.595352 173.688187,216.881638 174.151398,219.982590 
	C174.688354,223.577255 175.478027,227.135193 175.978958,230.733978 
	C176.566330,234.953949 174.056366,235.728165 170.792480,234.681290 
	C167.015182,233.469742 163.323868,231.940521 159.696487,230.322235 
	C153.410980,227.518097 147.322449,230.045181 146.428986,236.724472 
	C145.533325,243.420364 145.552322,250.269730 145.594711,257.049164 
	C145.623581,261.664246 145.416397,266.636688 146.984879,270.823700 
	C153.271957,287.606934 164.218842,301.187744 181.465103,306.569550 
	C196.039001,311.117432 211.567780,313.234009 226.840286,314.742706 
	C243.050827,316.344116 259.339905,314.905334 275.331024,310.988800 
	C285.679321,308.454224 295.141541,305.006073 300.141113,293.673523 
z"/>
<path fill="#E3AA5E" opacity="1.000000" stroke="none" 
	d="
M299.987183,294.002533 
	C295.141541,305.006073 285.679321,308.454224 275.331024,310.988800 
	C259.339905,314.905334 243.050827,316.344116 226.840286,314.742706 
	C211.567780,313.234009 196.039001,311.117432 181.465103,306.569550 
	C164.218842,301.187744 153.271957,287.606934 146.984879,270.823700 
	C145.416397,266.636688 145.623581,261.664246 145.594711,257.049164 
	C145.552322,250.269730 145.533325,243.420364 146.428986,236.724472 
	C147.322449,230.045181 153.410980,227.518097 159.696487,230.322235 
	C163.323868,231.940521 167.015182,233.469742 170.792480,234.681290 
	C174.056366,235.728165 176.566330,234.953949 175.978958,230.733978 
	C175.478027,227.135193 174.688354,223.577255 174.151398,219.982590 
	C173.688187,216.881638 172.600952,213.595352 173.182800,210.667908 
	C175.092590,201.059189 172.951843,191.890900 171.557999,182.526932 
	C170.993759,178.736374 171.898773,174.319107 173.473465,170.782990 
	C174.314285,168.894882 178.123871,167.170822 180.373093,167.413788 
	C182.373932,167.629944 185.347046,170.449417 185.682922,172.484344 
	C187.209610,181.734406 195.104889,187.204666 198.475479,195.348831 
	C200.102814,199.280884 207.936203,200.876785 212.952789,199.492020 
	C219.860687,197.585190 225.230225,193.792068 228.450119,187.161301 
	C229.750793,184.482803 231.295624,181.863785 233.096771,179.497345 
	C242.187393,167.553497 250.441833,173.371429 255.259018,181.937027 
	C257.908447,186.648087 259.050873,192.203949 260.899811,197.369232 
	C261.624359,199.393417 262.396637,201.401596 263.192963,203.398819 
	C265.092926,208.164062 268.633423,209.700348 273.579010,208.900421 
	C280.628967,207.760101 282.713806,208.652115 285.763733,215.182312 
	C287.408783,218.704529 289.256683,218.100220 291.611755,216.590256 
	C293.286316,215.516602 294.774414,214.153885 296.439087,213.062607 
	C303.027954,208.743240 307.894318,210.244217 309.332428,217.984055 
	C311.689575,230.670227 313.768646,243.471741 314.822998,256.318359 
	C315.870575,269.082458 311.505859,280.472931 302.606903,289.946228 
	C301.601593,291.016418 300.954376,292.422974 299.987183,294.002533 
M222.910049,202.554230 
	C220.771011,203.468491 218.692795,204.579193 216.482544,205.263489 
	C206.078140,208.484680 195.922501,204.104996 190.808334,194.751862 
	C187.193451,188.140671 181.079834,182.926605 179.757965,175.008987 
	C179.734482,174.868332 179.206635,174.811905 178.335159,174.526718 
	C178.215958,176.227142 177.917374,177.792099 178.030121,179.326843 
	C178.637054,187.586975 179.315506,195.842255 180.029556,204.093994 
	C180.628174,211.011902 181.281204,217.925461 181.969238,224.835068 
	C182.215271,227.305740 182.980194,229.768997 182.910446,232.218643 
	C182.690475,239.945267 179.189240,242.787430 171.663864,241.074753 
	C167.192810,240.057175 162.836868,238.421051 158.545898,236.761246 
	C155.208984,235.470505 152.871719,235.702118 152.621933,239.762177 
	C152.265198,245.560669 152.054047,251.375702 152.019821,257.185089 
	C151.910355,275.761200 161.388260,288.891479 176.973923,297.285919 
	C194.501083,306.725983 214.284195,307.695160 233.612396,308.691223 
	C244.745621,309.264984 256.078552,307.413513 267.223206,305.919495 
	C279.051575,304.333862 290.701874,301.814209 295.684113,288.604767 
	C296.132294,287.416382 297.144562,286.372070 298.078735,285.446411 
	C306.215515,277.383942 308.916260,266.959167 308.653839,256.261292 
	C308.391479,245.564224 306.242371,234.881973 304.492645,224.263687 
	C303.279877,216.903793 302.373718,216.845535 296.119965,221.175308 
	C293.865356,222.736267 290.979401,224.578522 288.543610,224.372879 
	C285.702179,224.132950 281.092163,222.221817 280.663422,220.281464 
	C279.396423,214.547562 275.829498,214.251053 271.806915,215.229416 
	C268.245605,216.095596 265.213745,215.479919 263.207367,212.980820 
	C260.073120,209.076843 257.175323,204.836304 255.011459,200.337204 
	C252.308960,194.718216 250.959198,188.425430 248.064667,182.929535 
	C245.866409,178.755630 242.340790,178.904892 239.100159,182.450516 
	C237.778305,183.896790 237.014771,185.839417 235.775970,187.378082 
	C231.760315,192.365784 227.642166,197.270966 222.910049,202.554230 
z"/>
<path fill="#F6CB72" opacity="1.000000" stroke="none" 
	d="
M223.236786,202.381073 
	C227.642166,197.270966 231.760315,192.365784 235.775970,187.378082 
	C237.014771,185.839417 237.778305,183.896790 239.100159,182.450516 
	C242.340790,178.904892 245.866409,178.755630 248.064667,182.929535 
	C250.959198,188.425430 252.308960,194.718216 255.011459,200.337204 
	C257.175323,204.836304 260.073120,209.076843 263.207367,212.980820 
	C265.213745,215.479919 268.245605,216.095596 271.806915,215.229416 
	C275.829498,214.251053 279.396423,214.547562 280.663422,220.281464 
	C281.092163,222.221817 285.702179,224.132950 288.543610,224.372879 
	C290.979401,224.578522 293.865356,222.736267 296.119965,221.175308 
	C302.373718,216.845535 303.279877,216.903793 304.492645,224.263687 
	C306.242371,234.881973 308.391479,245.564224 308.653839,256.261292 
	C308.916260,266.959167 306.215515,277.383942 298.078735,285.446411 
	C297.144562,286.372070 296.132294,287.416382 295.684113,288.604767 
	C290.701874,301.814209 279.051575,304.333862 267.223206,305.919495 
	C256.078552,307.413513 244.745621,309.264984 233.612396,308.691223 
	C214.284195,307.695160 194.501083,306.725983 176.973923,297.285919 
	C161.388260,288.891479 151.910355,275.761200 152.019821,257.185089 
	C152.054047,251.375702 152.265198,245.560669 152.621933,239.762177 
	C152.871719,235.702118 155.208984,235.470505 158.545898,236.761246 
	C162.836868,238.421051 167.192810,240.057175 171.663864,241.074753 
	C179.189240,242.787430 182.690475,239.945267 182.910446,232.218643 
	C182.980194,229.768997 182.215271,227.305740 181.969238,224.835068 
	C181.281204,217.925461 180.628174,211.011902 180.029556,204.093994 
	C179.315506,195.842255 178.637054,187.586975 178.030121,179.326843 
	C177.917374,177.792099 178.215958,176.227142 178.335159,174.526718 
	C179.206635,174.811905 179.734482,174.868332 179.757965,175.008987 
	C181.079834,182.926605 187.193451,188.140671 190.808334,194.751862 
	C195.922501,204.104996 206.078140,208.484680 216.482544,205.263489 
	C218.692795,204.579193 220.771011,203.468491 223.236786,202.381073 
M263.580933,247.096771 
	C258.425995,253.174362 256.976105,266.823944 261.296600,273.364594 
	C262.831329,275.687988 265.476471,278.163116 268.031342,278.747620 
	C273.788239,280.064606 279.814789,280.837982 285.714325,280.744324 
	C294.097992,280.611206 299.511902,274.843689 300.059723,266.450806 
	C300.641693,257.534424 297.995697,249.655319 290.054352,245.077133 
	C281.403687,240.090057 272.497803,241.274872 263.580933,247.096771 
M207.642471,264.982269 
	C208.505554,252.137924 200.201187,243.068573 188.284668,243.841217 
	C176.655914,244.595200 166.793076,256.702820 168.354202,268.253052 
	C169.031311,273.262695 171.617844,276.879730 176.052490,279.219360 
	C187.772552,285.402679 203.824036,278.533630 207.642471,264.982269 
M240.638962,264.407074 
	C240.033966,265.808228 239.227798,267.159119 238.862762,268.620239 
	C237.879562,272.555573 234.523682,273.955719 231.412033,271.321198 
	C230.118942,270.226379 229.640167,268.221985 228.537857,266.832092 
	C227.747742,265.835846 226.536880,265.173279 225.513748,264.361816 
	C224.999924,265.743774 223.888184,267.214722 224.078308,268.491913 
	C224.807129,273.388092 229.608337,277.528015 234.499741,277.650330 
	C238.564316,277.752014 241.574631,275.835052 242.919815,271.941559 
	C243.859909,269.220551 245.482742,266.129028 240.638962,264.407074 
z"/>
<path fill="#221C14" opacity="1.000000" stroke="none" 
	d="
M263.863007,246.859467 
	C272.497803,241.274872 281.403687,240.090057 290.054352,245.077133 
	C297.995697,249.655319 300.641693,257.534424 300.059723,266.450806 
	C299.511902,274.843689 294.097992,280.611206 285.714325,280.744324 
	C279.814789,280.837982 273.788239,280.064606 268.031342,278.747620 
	C265.476471,278.163116 262.831329,275.687988 261.296600,273.364594 
	C256.976105,266.823944 258.425995,253.174362 263.863007,246.859467 
M293.159973,252.488770 
	C287.801544,245.768448 280.129089,243.745407 271.271759,246.717316 
	C264.229919,249.080093 262.188293,252.704330 262.137787,262.931793 
	C262.092865,272.028656 265.029449,275.543732 274.047760,276.967957 
	C276.664062,277.381134 279.325531,277.689392 281.969482,277.715088 
	C293.285919,277.825012 298.742859,271.107574 296.282593,260.000763 
	C295.754272,257.615601 294.512360,255.388489 293.159973,252.488770 
z"/>
<path fill="#231D15" opacity="1.000000" stroke="none" 
	d="
M207.547409,265.384399 
	C203.824036,278.533630 187.772552,285.402679 176.052490,279.219360 
	C171.617844,276.879730 169.031311,273.262695 168.354202,268.253052 
	C166.793076,256.702820 176.655914,244.595200 188.284668,243.841217 
	C200.201187,243.068573 208.505554,252.137924 207.547409,265.384399 
M197.791260,249.511063 
	C196.740128,249.025101 195.724289,248.432877 194.632156,248.070435 
	C187.486618,245.699142 179.977005,248.520920 175.103836,255.356201 
	C171.027115,261.074341 170.444473,268.582245 173.726852,273.099762 
	C177.138062,277.794586 185.263382,279.268463 193.100220,276.613983 
	C205.780548,272.318878 208.410065,259.029266 197.791260,249.511063 
z"/>
<path fill="#1E1509" opacity="1.000000" stroke="none" 
	d="
M241.016418,264.360535 
	C245.482742,266.129028 243.859909,269.220551 242.919815,271.941559 
	C241.574631,275.835052 238.564316,277.752014 234.499741,277.650330 
	C229.608337,277.528015 224.807129,273.388092 224.078308,268.491913 
	C223.888184,267.214722 224.999924,265.743774 225.513733,264.361816 
	C226.536880,265.173279 227.747742,265.835846 228.537857,266.832092 
	C229.640167,268.221985 230.118942,270.226379 231.412033,271.321198 
	C234.523682,273.955719 237.879562,272.555573 238.862762,268.620239 
	C239.227798,267.159119 240.033966,265.808228 241.016418,264.360535 
z"/>
<path fill="#F7F7F7" opacity="1.000000" stroke="none" 
	d="
M293.379578,252.788666 
	C294.512360,255.388489 295.754272,257.615601 296.282593,260.000763 
	C298.742859,271.107574 293.285919,277.825012 281.969482,277.715088 
	C279.325531,277.689392 276.664062,277.381134 274.047760,276.967957 
	C265.029449,275.543732 262.092865,272.028656 262.137787,262.931793 
	C262.188293,252.704330 264.229919,249.080093 271.271759,246.717316 
	C280.129089,243.745407 287.801544,245.768448 293.379578,252.788666 
M270.894043,260.389069 
	C273.002380,260.605530 275.416901,261.527893 277.112335,260.792419 
	C278.259216,260.294891 279.085358,257.327972 278.768127,255.719269 
	C278.502594,254.372650 276.531281,252.748413 275.035767,252.379181 
	C271.294922,251.455566 269.424042,254.601212 270.894043,260.389069 
z"/>
<path fill="#F8F8F7" opacity="1.000000" stroke="none" 
	d="
M198.078827,249.754883 
	C208.410065,259.029266 205.780548,272.318878 193.100220,276.613983 
	C185.263382,279.268463 177.138062,277.794586 173.726852,273.099762 
	C170.444473,268.582245 171.027115,261.074341 175.103836,255.356201 
	C179.977005,248.520920 187.486618,245.699142 194.632156,248.070435 
	C195.724289,248.432877 196.740128,249.025101 198.078827,249.754883 
M188.306061,260.801331 
	C190.078445,261.682129 191.812286,263.106110 193.637985,263.235687 
	C194.697754,263.310913 196.701828,261.409119 196.855667,260.213562 
	C197.075531,258.505127 196.431061,256.245453 195.310471,254.955475 
	C194.532410,254.059799 191.563370,253.667099 190.925079,254.337265 
	C189.528000,255.804153 188.991058,258.090240 188.306061,260.801331 
z"/>
<path fill="#181919" opacity="1.000000" stroke="none" 
	d="
M270.624695,260.085022 
	C269.424042,254.601212 271.294922,251.455566 275.035767,252.379181 
	C276.531281,252.748413 278.502594,254.372650 278.768127,255.719269 
	C279.085358,257.327972 278.259216,260.294891 277.112335,260.792419 
	C275.416901,261.527893 273.002380,260.605530 270.624695,260.085022 
z"/>
<path fill="#161616" opacity="1.000000" stroke="none" 
	d="
M188.204437,260.421570 
	C188.991058,258.090240 189.528000,255.804153 190.925079,254.337265 
	C191.563370,253.667099 194.532410,254.059799 195.310471,254.955475 
	C196.431061,256.245453 197.075531,258.505127 196.855667,260.213562 
	C196.701828,261.409119 194.697754,263.310913 193.637985,263.235687 
	C191.812286,263.106110 190.078445,261.682129 188.204437,260.421570 
z"/>
</svg>