<?xml version="1.0" encoding="iso-8859-1"?>
<!-- Generator: Adobe Illustrator 27.0.1, SVG Export Plug-In . SVG Version: 6.00 Build 0)  -->
<svg version="1.1" id="Layer_1" xmlns="http://www.w3.org/2000/svg" xmlns:xlink="http://www.w3.org/1999/xlink" x="0px" y="0px"
	 viewBox="0 0 1221.245 1644.369" style="enable-background:new 0 0 1221.245 1644.369;" xml:space="preserve">
<g>
	<path style="fill:#FF673E;" d="M791.749,699.823c-18.019-65.507-53.822-121.159-72.986-185.58
		c-5.566,13.956-8.578,28.173-13.211,42.901c-28.161-56.523-32.162-129.736-60.124-191.082
		c-24.433-53.602-76.228-115.73-122.438-152.726C550.52,260.213,556.662,295.03,551.778,350
		c-7.814,87.933-44.09,151.729-80.246,231.875c-40.166,89.03-69.208,180.229-74.233,277.493
		c-6.378,123.464-13.707,422.059,138.301,470.948c0,0,85.422,44.744,161.608-33.562c47.529-48.852,119.063-157.62,114.996-385.409
		C810.99,843.326,809.819,765.511,791.749,699.823z"/>
	<path style="fill:#FF9B50;" d="M649.721,827.362c-7.143,18.27-15.018,38.319-28.989,54.161
		c2.587-111.556-39.616-212.064-40.387-318.771c0,2.247,0,4.497,0,6.745c-15.327,63.977-2.737,132.852-20.563,195.199
		c-18.122,63.384-56.976,121.052-69.042,187.326c-14.658,80.516-37.554,339.395,101.809,321.346l20.337,4.069
		C793.498,1221.697,665.842,945.628,649.721,827.362z"/>
	<path style="fill:#FFCC4D;" d="M572.211,945.113c-0.173,52.378-77.916,351.887,12.203,352.661l0,0
		C679.923,1321.171,572.48,985.349,572.211,945.113z"/>
</g>
</svg>
