<?xml version="1.0" encoding="iso-8859-1"?>
<!-- Generator: Adobe Illustrator 24.0.0, SVG Export Plug-In . SVG Version: 6.00 Build 0)  -->
<svg version="1.1" id="Layer_1" xmlns="http://www.w3.org/2000/svg" xmlns:xlink="http://www.w3.org/1999/xlink" x="0px" y="0px"
	 viewBox="0 0 1864.113 2141.717" style="enable-background:new 0 0 1864.113 2141.717;" xml:space="preserve">
<g>
	<g>
		<path style="fill:#FF673E;" d="M895.089,989.058c-0.137-0.664-0.294-1.32-0.501-1.96
			C894.769,987.751,894.927,988.404,895.089,989.058z"/>
		<path style="fill:#FF673E;" d="M1372.136,1446.743c-5.059-25.448-18.587-49.503-15.545-77.185
			c-3.61,29.853-32.685,47.295-37.632,71.002c-10.058-58.473,13.497-103.071,18.816-157.861
			c5.313-54.751-3.326-108.148-23.597-157.851c2.649,40.239-16.794,85.253-43.229,114.47
			c35.883-68.257,16.991-174.547-7.726-244.366c-23.292-65.791-160.497-167.566-104.769-244.377
			c-27.786,23.832-35.048,66.512-33.129,104.537c2.127,42.072-5.631,70.633-24.255,102.521
			c17.527-55.632-27.059-139.416-65.087-179.91c-27.028-28.782-65.058-43.537-93.446-70.586
			c-25.846-24.625-21.819-43.398-13.998-74.293c-7.915,11.314-19.987,29.823-23.867,41.95
			c-16.038,50.098,10.496,85.013,34.423,124.442c22.039,36.32,33.425,79.884,29.658,123.106
			c-8.325,95.476-96.807,167.828-63.229,268.281c-62.619-63.652,5.973-136.008-10.436-201.565
			c6.128,29.778-56.193,85.212-71.097,110.104c-25.589,42.743-39.997,93.894-36.912,143.338
			c2.381,38.147,17.71,62.489,28.459,97.262c4.316,13.968,5.258,31.038-0.074,45.067c-5.545,14.598-22.362,22.944-12.578,39.318
			c-31.428-36.56,8.832-86.767-39.535-120.193c14.723,23.396-6.797,56.128-17.206,78.247
			c-13.484,28.644-21.515,49.363-21.515,80.678c0,118.327,72.029,172.479,107.568,204.382h449.103
			c61.853-34.962,84.641-93.869,91.506-139.831C1376.615,1501.949,1377.185,1472.117,1372.136,1446.743z"/>
	</g>
	<g>
		<path style="fill:#FF673E;" d="M975.91,498.668c-19.031-15.05-46.046-27.112-52.396-53.265
			c-2.295,24.303,12.168,37.437,24.557,55.447c12.953,18.837,14.644,34.066,14.71,57.185c0.079,27-7.296,43.507-18.083,67.538
			c-8.089,18.014-19.042,43.844,0.654,58.823l8.608,9.837c-13.337-19.858,5.028-38.397,21.893-53.418
			c23.282-20.734,38.934-38.137,39.217-69.709C1015.364,538.23,1001.224,518.682,975.91,498.668z"/>
		<path style="fill:#FF673E;" d="M960.602,701.826l-6.642-7.593C955.648,696.744,957.835,699.276,960.602,701.826z"/>
	</g>
	<path style="fill:#FF673E;" d="M892.477,868.705c13.444-33.163-9.036-55.244-14.699-71.804
		c-0.334,23.048-19.257,29.883-30.108,47.315c-12.575,20.202-16.033,44.963-13.378,67.37c5.253,44.371,34.224,67.343,19.422,112.947
		h2.691c5.886-17.14,18.792-31.114,27.479-47.816C903.231,939.514,865.289,935.764,892.477,868.705z"/>
	<path style="fill:#FF673E;" d="M1107.584,583.178c44.103,57.546-81.79,147.842-3.773,196.636l10.758,5.378
		c-21.596-19.644,28.59-85.211,34.883-107.507C1161.456,635.154,1142.79,608.714,1107.584,583.178z"/>
	<g>
		<path style="fill:#FF673E;" d="M874.363,565.158c0.057,0.051,0.113,0.104,0.17,0.155c-0.034-0.078-0.06-0.155-0.094-0.233
			C873.457,564.073,873.431,564.098,874.363,565.158z"/>
		<path style="fill:#FF673E;" d="M874.533,565.314c17.099,39.347-38.64,84.357-10.063,123.066v10.756
			c3.744,13.377,7.383,26.343,13.576,39.535C861.057,680.488,925.83,609.776,874.533,565.314z"/>
	</g>
	<g>
		<path style="fill:#FF9B50;" d="M1268.333,1505.572c11.481-60.855,4.229-123.705,4.676-184.606
			c-3.177,22.212-18.32,51.126-28.821,65.738c-1.137-27.225,10.16-48.71-3.896-76.514c-13.347-26.404-26.928-33.602-45.757-51.287
			c-32.635-30.657,14.641-101.284-33.163-126.082c13.444,34.657-3.583,46.309-16.545,66.589
			c-13.397,20.959,0.131,33.072,4.702,56.397c11.733,59.863-49.592,69.229-59.154,10.747c-9.107-55.72,15.146-100.477,50.48-139.97
			c26.056-29.125,36.865-45.624,30.018-75.785c-8.616,28.589-74.189,55.325-88.511,64.502
			c-22.273,14.271-36.306,35.734-40.393,62.519c-3.447,22.597,3.678,41.199-10.832,60.9c-4.416-17.478-3.901-34.993-8.078-52.832
			c-3.347-14.304-14.033-25.736-19.141-38.747c10.601,50.082-32.672,96.413-51.215,138.249
			c-12.069,27.234-18.892,56.426-17.364,85.179c-7.396-17.04-16.332-33.39-25.08-47.53c-18.238-29.489-62.654-50.034-59.768-87.932
			c-26.836,48.882,24.694,95.463,7.934,147.024c-17.676,54.364-72.588,66.448-55.528,130.893
			c-6.17-16.261-22.357-20.793-30.05-35.833c17.577,39.974,5.933,80.871,31.795,120.227c19.997,30.428,53.586,59.133,75.014,69.844
			h347.773c25.951-24.148,75.998-112.33,77.521-179.912C1291.672,1490.395,1280.475,1501.064,1268.333,1505.572z"/>
		<path style="fill:#FF9B50;" d="M1273.235,1307.716c-0.123,4.404-0.194,8.822-0.225,13.25
			C1273.694,1316.167,1273.833,1311.676,1273.235,1307.716z"/>
	</g>
	<path style="fill:#FF9B50;" d="M994.43,836.492c40.267,55.544,8.577,96.849-8.273,155.77c-6.576,22.991-11.932,57.596-2.751,80.069
		c7.795,19.082,29.774,36.588,45.909,41.667l0,0c-38.335-47.538-7.109-101.104,11.971-146.078
		C1063.523,915.511,1043.636,866.291,994.43,836.492z"/>
	<g>
		<path style="fill:#FF9B50;" d="M1162.556,914.988c-0.491-2.691-1.271-5.352-2.4-7.977
			C1160.891,909.828,1161.703,912.472,1162.556,914.988z"/>
		<path style="fill:#FF9B50;" d="M1162.556,914.988c7.49,41.064-53.819,89.11-15.403,126.189
			c2.484-20.736,15.629-39.283,23.891-62.361C1181.453,949.736,1170.264,937.733,1162.556,914.988z"/>
	</g>
	<g>
		<path style="fill:#FF9B50;" d="M1212.387,1029.658c23.163,29.043,11.139,67.74-3.024,97.736
			c-18.669,39.539-5.411,55.951-0.67,96.142l4.518,15.063C1202.293,1174.856,1301.074,1074.078,1212.387,1029.658z"/>
	</g>
	<path style="fill:#FF9B50;" d="M826.823,1218.158c-21.651-39.614,8.493-84.189,21.643-104.067
		c-7.69,23.217,7.939,42.071,3.287,61.777c-5.122,21.689-21.929,28.791-19.553,55.736L826.823,1218.158z"/>
	<g>
		<path style="fill:#FFCC4D;" d="M1172.036,1303.16c-0.097,4.384,0.381,8.423,1.111,12.293
			C1174.328,1311.548,1174.26,1307.476,1172.036,1303.16z"/>
		<path style="fill:#FFCC4D;" d="M1190.062,1559.134c-6.687-14.429,6.143-39.417,3.221-57.442
			c-5.469,5.952-9.218,15.432-15.413,21.144c0.832-18.734,8.892-35.418,8.598-55.389c-0.294-20.134-8.385-38.598-12.646-57.364
			c-4.741-20.879-1.562-34.898,3.237-54.184c4.001-16.08-1.433-27.279-3.912-40.446c-3.308,10.936-16.5,20.554-20.291,30.493
			c-10.126,26.55,12.933,68.303-25.542,78.471c-33.174,8.766-53.339-22.331-62.745-50.187c-10.685-31.651-2.772-49.663,5.335-80.669
			c7.02-26.846-5.624-55.763-7.482-84.07c-13.15,11.354-2.035,59.582-10.843,78.692c-5.705,12.376-14.069,21.6-13.99,35.853
			c0.076,13.854,6.944,27.991,9.055,41.231c2.284,14.321,9.11,75.821-14.382,73.54c-26.44-2.568-9.874-63.96-10.714-80.711
			c-1.321-26.287-31.89-61.593-21.334-85.326c-29.674,29.722-1.173,67.033-15.873,100.108
			c-7.653,17.218-26.694,29.465-36.742,45.777c-12.113,19.659-3.074,33.599-7.12,54.027c-7.795-20.499-15.403-51.525-36.534-64.56
			c10.06,30.882,1.638,49.325-8.383,79.044c-10.709,31.774,7.128,56.489,4.172,87.211c-4.127-3.786-8.485-11.817-9.044-13.974
			c-0.042,35.024,1.677,80.894,41.63,106.859h239.604c15.356-21.969,20.824-43.591,28.488-68.944
			c7.133-23.599,2.995-52.467,10.793-75.119C1202.209,1532.479,1198.405,1548.921,1190.062,1559.134z"/>
	</g>
</g>
</svg>
